#!OML:ASF E:\Steps\Project 1\Capture day 1\Session 2\Subject.ASF
:FULLY-SPECIFIED
:DEGREES
330
root 12.3747 18.9497 7.95832 -153.786 4.30798 177.263
lowerback -27.4597 -2.98452 -4.86286
upperback -3.03079 -1.6184 -0.0363736
thorax 12.0303 -0.638124 2.23697
lowerneck -1.8939 -2.96828 0.565211
upperneck 16.1399 -3.19303 -0.537585
head 5.13979 -1.23129 -0.388908
rclavicle 2.44257e-014 -1.13307e-014
rhumerus -39.7849 -15.1983 -78.3555
rradius 30.5674
rwrist -2.62323
rhand -7.66517 -48.5908
rfingers 7.12502
rthumb 18.231 -77.7565
lclavicle 2.44257e-014 -1.13307e-014
lhumerus -41.4805 30.9945 57.5848
lradius 13.1782
lwrist -17.7449
lhand -24.0213 -13.291
lfingers 7.12502
lthumb 2.45682 16.6746
rfemur -23.5 5.23406 21.0424
rtibia 7.97592
rfoot -19.5187 -4.39908
rtoes -15.3769
lfemur -24.6282 -8.02909 -21.9511
ltibia 8.52412
lfoot -6.2678 -6.03587
ltoes -37.5287
331
root 12.3811 18.9428 7.93043 -153.676 4.52678 177.295
lowerback -27.8643 -2.95754 -4.87222
upperback -3.15755 -1.5231 -0.0195438
thorax 12.0894 -0.578018 2.2963
lowerneck -1.88675 -2.92014 0.433176
upperneck 15.7364 -3.16936 -0.466083
head 5.01767 -1.2415 -0.342233
rclavicle -8.56016e-015 -9.24349e-015
rhumerus -39.6595 -15.9697 -77.9124
rradius 29.8006
rwrist -2.7374
rhand -8.07706 -48.5235
rfingers 7.12502
rthumb 17.8347 -77.7257
lclavicle -8.56016e-015 -9.24349e-015
lhumerus -41.769 32.3242 56.8766
lradius 12.5132
lwrist -19.4409
lhand -24.111 -13.6509
lfingers 7.12502
lthumb 2.37011 16.3157
rfemur -23.349 5.55103 20.9839
rtibia 7.6797
rfoot -19.5591 -4.46212
rtoes -14.8107
lfemur -24.5725 -8.208 -21.8564
ltibia 8.43081
lfoot -6.58435 -5.62588
ltoes -37.6603
332
root 12.3852 18.9335 7.90553 -153.633 4.72024 177.271
lowerback -28.0859 -2.85996 -4.90642
upperback -3.35244 -1.31918 -0.0977034
thorax 11.9625 -0.458083 2.30654
lowerneck -1.85156 -3.02105 0.552355
upperneck 15.4883 -3.32306 -0.567132
head 4.9305 -1.32599 -0.398697
rclavicle 2.04872e-014 9.83984e-015
rhumerus -39.8068 -17.1598 -77.2986
rradius 28.9327
rwrist -2.3803
rhand -8.10355 -48.8398
rfingers 7.12502
rthumb 17.8092 -78.0443
lclavicle 2.04872e-014 9.83984e-015
lhumerus -42.0419 33.4723 56.1034
lradius 11.8247
lwrist -21.3693
lhand -24.1513 -13.7622
lfingers 7.12502
lthumb 2.3312 16.2048
rfemur -23.1083 5.63636 20.9086
rtibia 7.27585
rfoot -19.6419 -4.3295
rtoes -14.6686
lfemur -24.4666 -8.68709 -21.7985
ltibia 8.42963
lfoot -7.06123 -5.00558
ltoes -37.7539
333
root 12.3886 18.921 7.88411 -153.454 4.81403 177.267
lowerback -28.4126 -3.08416 -4.9237
upperback -3.76393 -1.533 0.0945782
thorax 11.6778 -0.510959 2.46156
lowerneck -1.2017 -2.94028 0.186465
upperneck 15.3573 -3.14132 -0.689676
head 4.78603 -1.25379 -0.357152
rclavicle 3.48494e-015 -1.42131e-014
rhumerus -40.2421 -17.5227 -76.5513
rradius 28.0968
rwrist -1.67084
rhand -8.03126 -48.9784
rfingers 7.12502
rthumb 17.8788 -78.1765
lclavicle 3.48494e-015 -1.42131e-014
lhumerus -43.2544 34.3898 55.3022
lradius 11.5428
lwrist -22.5052
lhand -23.9335 -14.0343
lfingers 7.12502
lthumb 2.54161 15.9303
rfemur -23.0334 5.4976 20.9185
rtibia 6.85643
rfoot -19.6615 -4.08191
rtoes -14.7886
lfemur -24.557 -9.0553 -21.7235
ltibia 8.45216
lfoot -7.40618 -4.60233
ltoes -37.9477
334
root 12.3944 18.9112 7.86886 -153.259 4.83446 177.326
lowerback -28.5481 -3.02816 -4.87589
upperback -3.87005 -1.42703 0.00243087
thorax 11.6129 -0.441715 2.37037
lowerneck -1.64659 -2.896 0.577286
upperneck 14.9165 -3.18786 -0.637463
head 4.71917 -1.28272 -0.412317
rclavicle 1.54058e-015 -2.36554e-014
rhumerus -40.0693 -19.0796 -76.0198
rradius 27.2103
rwrist -0.608054
rhand -8.30005 -49.2061
rfingers 7.12502
rthumb 17.6201 -78.4277
lclavicle 1.54058e-015 -2.36554e-014
lhumerus -42.8917 34.7951 55.3969
lradius 11.1896
lwrist -23.3435
lhand -23.6763 -14.4224
lfingers 7.12502
lthumb 2.78994 15.5391
rfemur -23.0554 5.52444 20.9943
rtibia 6.61281
rfoot -19.6678 -3.95018
rtoes -14.3501
lfemur -24.7596 -9.10689 -21.5977
ltibia 8.53994
lfoot -7.61791 -4.41043
ltoes -38.7719
335
root 12.4017 18.9031 7.85432 -153.216 4.99442 177.406
lowerback -28.4396 -3.03149 -4.88728
upperback -4.14656 -1.39602 0.0293887
thorax 11.2365 -0.395209 2.42568
lowerneck -1.67627 -2.80934 0.623735
upperneck 14.3234 -3.11371 -0.497603
head 5.06142 -1.24246 -0.408222
rclavicle 8.97016e-015 -5.96354e-015
rhumerus -40.1959 -20.1949 -75.3174
rradius 26.2857
rwrist 0.463923
rhand -8.49065 -49.4106
rfingers 7.12502
rthumb 17.4367 -78.6485
lclavicle 8.97016e-015 -5.96354e-015
lhumerus -43.1677 35.2661 55.2024
lradius 10.9219
lwrist -24.361
lhand -23.4469 -14.41
lfingers 7.12502
lthumb 3.01147 15.5485
rfemur -22.9904 5.58116 21.0977
rtibia 6.5519
rfoot -19.6953 -3.78501
rtoes -14.2
lfemur -24.7389 -8.94707 -21.5256
ltibia 8.56762
lfoot -7.83512 -4.25663
ltoes -39.6109
336
root 12.4084 18.895 7.83754 -153.225 5.36553 177.535
lowerback -28.4886 -2.94059 -4.88018
upperback -4.30828 -1.25531 0.0680717
thorax 11.0651 -0.311512 2.521
lowerneck -1.76904 -2.68988 0.626539
upperneck 14.0916 -2.9769 -0.523728
head 4.99352 -1.18897 -0.411116
rclavicle -6.54747e-015 -9.24349e-015
rhumerus -40.1449 -21.1874 -74.6517
rradius 25.27
rwrist 1.47242
rhand -8.56702 -48.9317
rfingers 7.12502
rthumb 17.3632 -78.1762
lclavicle -6.54747e-015 -9.24349e-015
lhumerus -43.3573 35.4043 55.4304
lradius 10.869
lwrist -24.9905
lhand -23.3265 -14.1555
lfingers 7.12502
lthumb 3.1278 15.8013
rfemur -22.9289 5.44279 21.2732
rtibia 6.56941
rfoot -19.735 -3.30442
rtoes -14.6268
lfemur -24.5376 -8.72374 -21.4632
ltibia 8.43493
lfoot -8.0107 -4.04007
ltoes -40.1537
337
root 12.4133 18.8886 7.82139 -153.254 5.70606 177.628
lowerback -28.6669 -2.87094 -4.87691
upperback -4.3714 -1.1441 0.105042
thorax 11.0753 -0.252766 2.60335
lowerneck -1.75524 -2.52783 0.517842
upperneck 13.6583 -2.79867 -0.456403
head 4.83289 -1.12244 -0.357535
rclavicle -8.38623e-016 1.78906e-014
rhumerus -39.9195 -21.9021 -74.2112
rradius 24.2823
rwrist 2.23251
rhand -8.76105 -48.8095
rfingers 7.12502
rthumb 17.1764 -78.0703
lclavicle -8.38623e-016 1.78906e-014
lhumerus -43.0556 34.9093 56.4089
lradius 10.8411
lwrist -24.6946
lhand -23.4067 -14.1743
lfingers 7.12502
lthumb 3.05037 15.7836
rfemur -22.8391 5.21085 21.416
rtibia 6.51286
rfoot -19.733 -2.6777
rtoes -14.9188
lfemur -24.3335 -8.51577 -21.4629
ltibia 8.33581
lfoot -8.14376 -3.84447
ltoes -40.6267
338
root 12.4173 18.8853 7.80439 -153.387 5.91058 177.685
lowerback -28.7197 -2.74148 -4.87887
upperback -4.31527 -0.971517 0.0362603
thorax 11.1519 -0.178741 2.58998
lowerneck -2.0246 -2.54707 0.689614
upperneck 13.2483 -2.89343 -0.431279
head 4.73204 -1.18266 -0.385489
rclavicle -4.32357e-015 9.83984e-015
rhumerus -39.5578 -23.2454 -73.6724
rradius 23.1167
rwrist 3.44493
rhand -9.00937 -48.7921
rfingers 7.12502
rthumb 16.9374 -78.0736
lclavicle -4.32357e-015 9.83984e-015
lhumerus -42.1598 35.0237 57.1823
lradius 10.4917
lwrist -25.2491
lhand -23.4108 -13.7714
lfingers 7.12502
lthumb 3.04642 16.1866
rfemur -22.5535 5.21744 21.4876
rtibia 6.33976
rfoot -19.78 -2.52001
rtoes -15.5828
lfemur -24.0639 -8.40955 -21.4759
ltibia 8.31594
lfoot -8.28594 -3.82663
ltoes -40.3367
339
root 12.4191 18.8831 7.7894 -153.493 6.07694 177.75
lowerback -28.7668 -2.64444 -4.84488
upperback -4.27578 -0.8538 -0.00517161
thorax 11.2109 -0.127389 2.56677
lowerneck -2.29224 -2.56856 0.796295
upperneck 12.9523 -2.97283 -0.427169
head 4.67436 -1.23448 -0.409051
rclavicle 3.66509e-015 9.93923e-017
rhumerus -39.1797 -24.9303 -72.8546
rradius 21.7539
rwrist 5.46205
rhand -9.01795 -48.7043
rfingers 7.12502
rthumb 16.9292 -77.9864
lclavicle 3.66509e-015 9.93923e-017
lhumerus -41.2482 34.9898 58.1552
lradius 10.2839
lwrist -25.6143
lhand -23.4068 -13.1369
lfingers 7.12502
lthumb 3.05029 16.821
rfemur -22.31 5.31657 21.5452
rtibia 6.2135
rfoot -19.8834 -2.57268
rtoes -16.4268
lfemur -23.8866 -8.32491 -21.4713
ltibia 8.38472
lfoot -8.4423 -3.95312
ltoes -39.6445
